G04 EAGLE Gerber RS-274X export*
G75*
%MOMM*%
%FSLAX34Y34*%
%LPD*%
%INTop Copper*%
%IPPOS*%
%AMOC8*
5,1,8,0,0,1.08239X$1,22.5*%
G01*
%ADD10R,30.480000X12.700000*%
%ADD11R,2.540000X1.270000*%
%ADD12C,0.152400*%
%ADD13R,17.780000X17.780000*%
%ADD14R,5.080000X5.080000*%
%ADD15C,1.320800*%
%ADD16P,1.429621X8X22.500000*%
%ADD17P,1.814519X8X112.500000*%
%ADD18R,1.200000X1.200000*%
%ADD19C,1.016000*%
%ADD20P,1.787026X8X22.500000*%
%ADD21C,0.812800*%
%ADD22C,0.406400*%
%ADD23P,2.749271X8X22.500000*%
%ADD24P,1.649562X8X22.500000*%
%ADD25C,0.508000*%


D10*
X190500Y711200D03*
X190500Y558800D03*
X190500Y406400D03*
X190500Y254000D03*
X190500Y101600D03*
X1079500Y711200D03*
X1079500Y558800D03*
X1079500Y406400D03*
X1079500Y254000D03*
X1079500Y101600D03*
D11*
X685800Y679450D03*
X685800Y654050D03*
X685800Y654050D03*
X635000Y679450D03*
X635000Y654050D03*
X685800Y704850D03*
X635000Y704850D03*
D12*
X524140Y585992D02*
X524140Y569722D01*
X524140Y585992D02*
X532275Y585992D01*
X534987Y583280D01*
X534987Y577857D01*
X532275Y575145D01*
X524140Y575145D01*
X529564Y575145D02*
X534987Y569722D01*
X507769Y595122D02*
X507769Y611392D01*
X515904Y611392D01*
X518615Y608680D01*
X518615Y603257D01*
X515904Y600545D01*
X507769Y600545D01*
X513192Y600545D02*
X518615Y595122D01*
X524140Y605969D02*
X534987Y595122D01*
X524140Y595122D02*
X534987Y605969D01*
X513192Y620522D02*
X513192Y636792D01*
X507769Y636792D02*
X518615Y636792D01*
X524140Y631369D02*
X534987Y620522D01*
X524140Y620522D02*
X534987Y631369D01*
X518615Y654057D02*
X507769Y654057D01*
X513192Y659480D02*
X513192Y648634D01*
X524140Y662192D02*
X534987Y662192D01*
X524140Y662192D02*
X524140Y654057D01*
X529564Y656769D01*
X532275Y656769D01*
X534987Y654057D01*
X534987Y648634D01*
X532275Y645922D01*
X526852Y645922D01*
X524140Y648634D01*
X534987Y710280D02*
X532275Y712992D01*
X526852Y712992D01*
X524140Y710280D01*
X524140Y699434D01*
X526852Y696722D01*
X532275Y696722D01*
X534987Y699434D01*
X534987Y704857D01*
X529564Y704857D01*
D13*
X635000Y889000D03*
X266700Y889000D03*
D14*
X400050Y901700D03*
X133350Y901700D03*
X768350Y901700D03*
X501650Y901700D03*
D15*
X653796Y419100D02*
X667004Y419100D01*
X667004Y393700D02*
X653796Y393700D01*
X653796Y368300D02*
X667004Y368300D01*
X667004Y342900D02*
X653796Y342900D01*
X653796Y317500D02*
X667004Y317500D01*
X667004Y292100D02*
X653796Y292100D01*
X653796Y266700D02*
X667004Y266700D01*
X667004Y241300D02*
X653796Y241300D01*
X653796Y215900D02*
X667004Y215900D01*
X667004Y190500D02*
X653796Y190500D01*
X653796Y165100D02*
X667004Y165100D01*
X667004Y139700D02*
X653796Y139700D01*
X653796Y114300D02*
X667004Y114300D01*
X667004Y88900D02*
X653796Y88900D01*
X729996Y88900D02*
X743204Y88900D01*
X743204Y114300D02*
X729996Y114300D01*
X729996Y139700D02*
X743204Y139700D01*
X743204Y165100D02*
X729996Y165100D01*
X729996Y190500D02*
X743204Y190500D01*
X743204Y215900D02*
X729996Y215900D01*
X729996Y241300D02*
X743204Y241300D01*
X743204Y266700D02*
X729996Y266700D01*
X729996Y292100D02*
X743204Y292100D01*
X743204Y317500D02*
X729996Y317500D01*
X729996Y342900D02*
X743204Y342900D01*
X743204Y368300D02*
X729996Y368300D01*
X729996Y393700D02*
X743204Y393700D01*
X743204Y419100D02*
X729996Y419100D01*
D16*
X552450Y514350D03*
X603250Y514350D03*
D17*
X635000Y444500D03*
X635000Y546100D03*
D18*
X793750Y766150D03*
X793750Y745150D03*
D19*
X660400Y342900D02*
X457200Y342900D01*
X457200Y711200D01*
X342900Y711200D01*
X431800Y317500D02*
X660400Y317500D01*
X431800Y317500D02*
X431800Y558800D01*
X342900Y558800D01*
X406400Y292100D02*
X660400Y292100D01*
X406400Y292100D02*
X406400Y406400D01*
X342900Y406400D01*
X381000Y165100D02*
X660400Y165100D01*
X381000Y165100D02*
X381000Y254000D01*
X342900Y254000D01*
X558800Y139700D02*
X660400Y139700D01*
X558800Y139700D02*
X558800Y101600D01*
X342900Y101600D01*
X584200Y114300D02*
X660400Y114300D01*
X584200Y114300D02*
X584200Y38100D01*
X901700Y38100D01*
X901700Y101600D01*
X927100Y101600D01*
X660400Y88900D02*
X622300Y88900D01*
X622300Y63500D01*
X876300Y63500D01*
X876300Y254000D01*
X927100Y254000D01*
X850900Y114300D02*
X736600Y114300D01*
X850900Y114300D02*
X850900Y406400D01*
X927100Y406400D01*
X800100Y165100D02*
X736600Y165100D01*
X800100Y165100D02*
X800100Y711200D01*
X927100Y711200D01*
X825500Y139700D02*
X736600Y139700D01*
X825500Y139700D02*
X825500Y558800D01*
X927100Y558800D01*
D20*
X596900Y190500D03*
D21*
X660400Y190500D01*
D22*
X660400Y215900D02*
X628650Y215900D01*
D20*
X596900Y241300D03*
D22*
X628650Y215900D01*
X711200Y444500D02*
X768350Y444500D01*
D19*
X768350Y736600D01*
D22*
X736600Y88900D02*
X711200Y88900D01*
X711200Y444500D01*
D19*
X768350Y736600D02*
X889000Y736600D01*
X889000Y876300D01*
D23*
X927100Y876300D03*
D19*
X889000Y876300D01*
D23*
X1028700Y876300D03*
D19*
X927100Y876300D01*
D24*
X552450Y704850D03*
D19*
X482600Y704850D01*
X482600Y825500D01*
X355600Y825500D01*
D22*
X660400Y241300D02*
X698500Y241300D01*
D21*
X660400Y241300D02*
X622300Y241300D01*
X622300Y266700D01*
D20*
X596900Y215900D03*
D21*
X622300Y266700D02*
X571500Y266700D01*
X571500Y215900D01*
X596900Y215900D01*
D22*
X698500Y241300D02*
X698500Y469900D01*
X742950Y469900D01*
D19*
X742950Y774700D01*
D25*
X749300Y774700D01*
D19*
X838200Y774700D01*
X838200Y1003300D01*
X977900Y1003300D01*
D23*
X977900Y927100D03*
D19*
X977900Y1003300D01*
X1231900Y1003300D01*
X1232514Y1003293D01*
X1233127Y1003270D01*
X1233740Y1003233D01*
X1234351Y1003181D01*
X1234962Y1003115D01*
X1235570Y1003033D01*
X1236176Y1002937D01*
X1236780Y1002827D01*
X1237381Y1002702D01*
X1237979Y1002562D01*
X1238573Y1002408D01*
X1239163Y1002239D01*
X1239749Y1002057D01*
X1240330Y1001860D01*
X1240907Y1001649D01*
X1241478Y1001425D01*
X1242044Y1001187D01*
X1242604Y1000935D01*
X1243157Y1000669D01*
X1243704Y1000391D01*
X1244244Y1000099D01*
X1244777Y999794D01*
X1245302Y999476D01*
X1245820Y999146D01*
X1246329Y998804D01*
X1246830Y998449D01*
X1247322Y998082D01*
X1247805Y997704D01*
X1248279Y997314D01*
X1248743Y996912D01*
X1249198Y996500D01*
X1249642Y996076D01*
X1250076Y995642D01*
X1250500Y995198D01*
X1250912Y994743D01*
X1251314Y994279D01*
X1251704Y993805D01*
X1252082Y993322D01*
X1252449Y992830D01*
X1252804Y992329D01*
X1253146Y991820D01*
X1253476Y991302D01*
X1253794Y990777D01*
X1254099Y990244D01*
X1254391Y989704D01*
X1254669Y989157D01*
X1254935Y988604D01*
X1255187Y988044D01*
X1255425Y987478D01*
X1255649Y986907D01*
X1255860Y986330D01*
X1256057Y985749D01*
X1256239Y985163D01*
X1256408Y984573D01*
X1256562Y983979D01*
X1256702Y983381D01*
X1256827Y982780D01*
X1256937Y982176D01*
X1257033Y981570D01*
X1257115Y980962D01*
X1257181Y980351D01*
X1257233Y979740D01*
X1257270Y979127D01*
X1257293Y978514D01*
X1257300Y977900D01*
X1257300Y38100D01*
X1257293Y37486D01*
X1257270Y36873D01*
X1257233Y36260D01*
X1257181Y35649D01*
X1257115Y35038D01*
X1257033Y34430D01*
X1256937Y33824D01*
X1256827Y33220D01*
X1256702Y32619D01*
X1256562Y32021D01*
X1256408Y31427D01*
X1256239Y30837D01*
X1256057Y30251D01*
X1255860Y29670D01*
X1255649Y29093D01*
X1255425Y28522D01*
X1255187Y27956D01*
X1254935Y27396D01*
X1254669Y26843D01*
X1254391Y26296D01*
X1254099Y25756D01*
X1253794Y25223D01*
X1253476Y24698D01*
X1253146Y24180D01*
X1252804Y23671D01*
X1252449Y23170D01*
X1252082Y22678D01*
X1251704Y22195D01*
X1251314Y21721D01*
X1250912Y21257D01*
X1250500Y20802D01*
X1250076Y20358D01*
X1249642Y19924D01*
X1249198Y19500D01*
X1248743Y19088D01*
X1248279Y18686D01*
X1247805Y18296D01*
X1247322Y17918D01*
X1246830Y17551D01*
X1246329Y17196D01*
X1245820Y16854D01*
X1245302Y16524D01*
X1244777Y16206D01*
X1244244Y15901D01*
X1243704Y15609D01*
X1243157Y15331D01*
X1242604Y15065D01*
X1242044Y14813D01*
X1241478Y14575D01*
X1240907Y14351D01*
X1240330Y14140D01*
X1239749Y13943D01*
X1239163Y13761D01*
X1238573Y13592D01*
X1237979Y13438D01*
X1237381Y13298D01*
X1236780Y13173D01*
X1236176Y13063D01*
X1235570Y12967D01*
X1234962Y12885D01*
X1234351Y12819D01*
X1233740Y12767D01*
X1233127Y12730D01*
X1232514Y12707D01*
X1231900Y12700D01*
X38100Y12700D01*
X37486Y12707D01*
X36873Y12730D01*
X36260Y12767D01*
X35649Y12819D01*
X35038Y12885D01*
X34430Y12967D01*
X33824Y13063D01*
X33220Y13173D01*
X32619Y13298D01*
X32021Y13438D01*
X31427Y13592D01*
X30837Y13761D01*
X30251Y13943D01*
X29670Y14140D01*
X29093Y14351D01*
X28522Y14575D01*
X27956Y14813D01*
X27396Y15065D01*
X26843Y15331D01*
X26296Y15609D01*
X25756Y15901D01*
X25223Y16206D01*
X24698Y16524D01*
X24180Y16854D01*
X23671Y17196D01*
X23170Y17551D01*
X22678Y17918D01*
X22195Y18296D01*
X21721Y18686D01*
X21257Y19088D01*
X20802Y19500D01*
X20358Y19924D01*
X19924Y20358D01*
X19500Y20802D01*
X19088Y21257D01*
X18686Y21721D01*
X18296Y22195D01*
X17918Y22678D01*
X17551Y23170D01*
X17196Y23671D01*
X16854Y24180D01*
X16524Y24698D01*
X16206Y25223D01*
X15901Y25756D01*
X15609Y26296D01*
X15331Y26843D01*
X15065Y27396D01*
X14813Y27956D01*
X14575Y28522D01*
X14351Y29093D01*
X14140Y29670D01*
X13943Y30251D01*
X13761Y30837D01*
X13592Y31427D01*
X13438Y32021D01*
X13298Y32619D01*
X13173Y33220D01*
X13063Y33824D01*
X12967Y34430D01*
X12885Y35038D01*
X12819Y35649D01*
X12767Y36260D01*
X12730Y36873D01*
X12707Y37486D01*
X12700Y38100D01*
X12700Y977900D01*
X12707Y978514D01*
X12730Y979127D01*
X12767Y979740D01*
X12819Y980351D01*
X12885Y980962D01*
X12967Y981570D01*
X13063Y982176D01*
X13173Y982780D01*
X13298Y983381D01*
X13438Y983979D01*
X13592Y984573D01*
X13761Y985163D01*
X13943Y985749D01*
X14140Y986330D01*
X14351Y986907D01*
X14575Y987478D01*
X14813Y988044D01*
X15065Y988604D01*
X15331Y989157D01*
X15609Y989704D01*
X15901Y990244D01*
X16206Y990777D01*
X16524Y991302D01*
X16854Y991820D01*
X17196Y992329D01*
X17551Y992830D01*
X17918Y993322D01*
X18296Y993805D01*
X18686Y994279D01*
X19088Y994743D01*
X19500Y995198D01*
X19924Y995642D01*
X20358Y996076D01*
X20802Y996500D01*
X21257Y996912D01*
X21721Y997314D01*
X22195Y997704D01*
X22678Y998082D01*
X23170Y998449D01*
X23671Y998804D01*
X24180Y999146D01*
X24698Y999476D01*
X25223Y999794D01*
X25756Y1000099D01*
X26296Y1000391D01*
X26843Y1000669D01*
X27396Y1000935D01*
X27956Y1001187D01*
X28522Y1001425D01*
X29093Y1001649D01*
X29670Y1001860D01*
X30251Y1002057D01*
X30837Y1002239D01*
X31427Y1002408D01*
X32021Y1002562D01*
X32619Y1002702D01*
X33220Y1002827D01*
X33824Y1002937D01*
X34430Y1003033D01*
X35038Y1003115D01*
X35649Y1003181D01*
X36260Y1003233D01*
X36873Y1003270D01*
X37486Y1003293D01*
X38100Y1003300D01*
X266700Y1003300D01*
X266700Y977900D01*
D21*
X635000Y654050D02*
X635000Y539750D01*
X635000Y654050D02*
X552450Y654050D01*
D20*
X552450Y654050D03*
X552450Y628650D03*
D21*
X577850Y393700D02*
X660400Y393700D01*
X577850Y628650D02*
X552450Y628650D01*
X577850Y628650D02*
X577850Y393700D01*
D19*
X603250Y679450D02*
X603250Y749300D01*
X603250Y679450D02*
X628650Y679450D01*
X603250Y749300D02*
X508000Y749300D01*
X508000Y876300D01*
D20*
X552450Y603250D03*
D21*
X508000Y603250D01*
X508000Y368300D01*
X660400Y368300D01*
X660400Y419100D02*
X660400Y444500D01*
X635000Y444500D01*
X603250Y444500D02*
X603250Y514350D01*
X603250Y444500D02*
X635000Y444500D01*
D25*
X660400Y266700D02*
X685800Y266700D01*
D22*
X685800Y609600D01*
D21*
X635000Y609600D02*
X635000Y546100D01*
D22*
X635000Y609600D02*
X685800Y609600D01*
D20*
X552450Y577850D03*
D21*
X552450Y514350D01*
D19*
X400050Y927100D02*
X400050Y965200D01*
X546100Y965200D01*
M02*
